# xmcd CD database file
#
# Track frame offsets:
#	150
#	24560
#	43925
#	67202
#	91092
#	113182
#	121367
#	139110
#	161752
#	177755
#
# Disc length: 2434 seconds
#
# Submitted via: cddb-tool 0.4.5
#
#blues,classical,country,data,folk,jazz,newage,reggae,rock,soundtrack,misc
# Revision: 0
# Processed by: cddbd v1.5.1PL2 Copyright (c) Steve Scherf et al.
#
DISCID=8a09800a
DTITLE=C.O.D. - Polaroidiuntuffo
DYEAR=1997
DGENRE=Indie
TTITLE0=Polaroid
TTITLE1=Fiore
TTITLE2=Atomico?
TTITLE3=Nevicadere
TTITLE4=Le balene
TTITLE5=Mira
TTITLE6=Pesado (Tengo el corazòn)
TTITLE7=Giulio delle stelle
TTITLE8=La fiera del nulla
TTITLE9=Nove
EXTD=MG0005
EXTT0=
EXTT1=
EXTT2=
EXTT3=
EXTT4=
EXTT5=
EXTT6=
EXTT7=
EXTT8=
EXTT9=
PLAYORDER=
